<svg width="136" height="132" viewBox="0 0 136 132" fill="none" xmlns="http://www.w3.org/2000/svg">
<path d="M122.979 36.161L123.541 107.314L55.5095 128.075L55.0036 56.7578L122.979 36.161Z" fill="#FF00AA"/>
<path d="M55.5094 128.075L10.8848 95.537L10.3789 24.2198L55.0035 56.758L55.5094 128.075Z" fill="#D51093"/>
<path d="M55.0037 56.758L10.379 24.2199L78.4109 3.45881L122.979 36.1612L55.0037 56.758Z" fill="#ED1BA7"/>
<path d="M122.979 36.1612L78.4109 3.4588L10.379 24.2199L10.8849 95.5371L55.5096 128.075L123.541 107.314L122.979 36.1612Z" fill="url(#paint0_linear_73_1073)"/>
<path fill-rule="evenodd" clip-rule="evenodd" d="M118.327 96.767C117.902 98.5508 116.415 99.7188 114.525 99.7188H110.215C108.346 99.7188 106.859 98.5508 106.435 96.767L105.606 93.2206L105.16 93.0507L102.06 94.9619C100.489 95.9388 98.5986 95.6839 97.3032 94.3461L94.3089 91.3731C92.9711 90.014 92.7375 88.1665 93.7143 86.6163L95.6256 83.5371L95.4769 83.1124L91.9305 82.2629C90.168 81.8382 89 80.3517 89 78.483V74.3207C89 72.4732 90.1467 70.9867 91.9305 70.5408L95.4344 69.6701L95.6256 69.2241L93.6931 66.145C92.7163 64.616 92.9499 62.7685 94.2877 61.3881L97.282 58.3939C98.5773 57.0773 100.446 56.8224 102.039 57.7993L105.118 59.6893L105.606 59.4982L106.435 55.9518C106.859 54.168 108.346 53 110.215 53H114.525C116.415 53 117.902 54.168 118.327 55.9518L119.134 59.4982L119.622 59.6893L122.722 57.7993C124.294 56.8224 126.163 57.0773 127.479 58.3939L130.452 61.3881C131.79 62.7685 132.045 64.616 131.047 66.145L129.136 69.2241L129.306 69.6701L132.809 70.5408C134.593 70.9655 135.761 72.4732 135.761 74.3207V78.483C135.761 80.3517 134.593 81.817 132.809 82.2629L129.284 83.1124L129.114 83.5371L131.047 86.6163C132.024 88.1665 131.79 90.014 130.452 91.3731L127.458 94.3461C126.141 95.6839 124.273 95.9388 122.701 94.9619L119.601 93.0507L119.134 93.2206L118.327 96.767ZM110.915 95.3656H113.846C114.207 95.3656 114.356 95.2169 114.419 94.8984L115.672 89.7169C117.159 89.3771 118.39 88.8462 119.558 88.1029L124.103 90.8848C124.358 91.0547 124.612 91.0335 124.867 90.7999L126.885 88.7612C127.139 88.5276 127.139 88.2728 126.97 88.018L124.166 83.4735C124.846 82.3693 125.419 81.0102 125.717 79.6299L130.941 78.3982C131.259 78.3345 131.408 78.1646 131.408 77.8248V74.9792C131.408 74.597 131.259 74.4483 130.941 74.3846L125.738 73.1317C125.419 71.7089 124.804 70.3286 124.209 69.2668L126.991 64.7436C127.161 64.4675 127.161 64.2127 126.927 63.9791L124.888 61.9617C124.612 61.7281 124.4 61.7068 124.103 61.8767L119.58 64.6374C118.433 63.9578 117.116 63.3632 115.672 63.0447L114.419 57.8207C114.356 57.5022 114.207 57.3535 113.846 57.3535H110.915C110.554 57.3535 110.384 57.5022 110.342 57.8207L109.089 63.0022C107.666 63.3632 106.159 63.9791 105.16 64.6374L100.637 61.8555C100.34 61.6856 100.106 61.7068 99.8515 61.9617L97.8129 63.9578C97.558 64.1914 97.5793 64.4463 97.7491 64.7436L100.552 69.2668C99.9364 70.3286 99.3206 71.7089 99.0021 73.1529L93.8205 74.3846C93.4808 74.4483 93.3321 74.597 93.3321 74.9792V77.8248C93.3321 78.1646 93.502 78.3345 93.8205 78.3982L99.0233 79.6299C99.3206 81.0102 99.9152 82.348 100.574 83.4735L97.7704 88.018C97.6005 88.2941 97.6005 88.5489 97.8341 88.7825L99.8727 90.8211C100.128 91.0547 100.382 91.0759 100.637 90.9061L105.182 88.1029C106.328 88.8462 107.688 89.3983 109.089 89.7169L110.342 94.8984C110.384 95.2169 110.554 95.3656 110.915 95.3656ZM112.37 84.4079C116.766 84.4079 120.376 80.7766 120.376 76.3595C120.376 71.9637 116.766 68.3749 112.37 68.3749C107.953 68.3749 104.322 71.9637 104.322 76.3595C104.322 80.7766 107.953 84.4079 112.37 84.4079ZM108.335 76.3595C108.335 78.6105 110.161 80.4368 112.391 80.4368C114.579 80.4368 116.405 78.5893 116.405 76.3595C116.405 74.1723 114.579 72.3247 112.391 72.3247C110.183 72.3247 108.335 74.151 108.335 76.3595Z" fill="white"/>
<defs>
<linearGradient id="paint0_linear_73_1073" x1="144.429" y1="42.4462" x2="27.1485" y2="77.8151" gradientUnits="userSpaceOnUse">
<stop stop-color="#00B8FF"/>
<stop offset="1" stop-color="#00B8FF" stop-opacity="0"/>
</linearGradient>
</defs>
</svg>
