<svg width="622" height="461" viewBox="0 0 622 461" fill="none" xmlns="http://www.w3.org/2000/svg">
<g filter="url(#filter0_dddd_83_17)">
<path d="M134.175 356.454C101.681 339.71 79.9018 318.291 69.1282 294.979C64.8419 285.69 62.2354 276.164 61.4244 266.519L61.3665 265.573C58.7021 230.191 79.3226 193.389 123.633 163.746C210.923 105.347 357.236 97.064 450.376 145.108C497.814 169.603 522.316 204.039 523.358 239.657C523.648 249.538 522.142 259.479 518.782 269.36C510.557 293.736 491.327 317.463 460.86 337.816C373.57 396.214 227.315 404.498 134.175 356.454Z" fill="url(#paint0_linear_83_17)"/>
</g>
<path d="M149.191 280.886C120.126 266.187 100.622 247.434 91.0057 227.007C87.1699 218.9 84.8468 210.524 84.0904 202.039L84.0364 201.175C81.6593 170.209 100.082 137.892 139.791 111.952C217.912 60.7751 348.87 53.4794 432.232 95.6318C474.696 117.086 496.63 147.295 497.549 178.477C497.819 187.124 496.468 195.879 493.443 204.471C486.095 225.818 468.861 246.624 441.632 264.457C363.457 315.743 232.499 322.984 149.191 280.886Z" fill="url(#paint1_radial_83_17)"/>
<path d="M154.756 277.265C126.825 263.161 108.078 245.111 98.8392 225.494C95.1655 217.658 92.8964 209.659 92.1941 201.553L92.14 200.743C89.8169 170.966 107.537 139.946 145.679 115.033C220.775 65.855 346.547 58.8837 426.667 99.3608C467.456 120.005 488.526 148.971 489.445 178.964C489.715 187.286 488.364 195.663 485.501 203.931C478.423 224.467 461.892 244.462 435.689 261.593C360.593 310.717 234.822 317.743 154.756 277.265Z" fill="url(#paint2_radial_83_17)"/>
<path d="M191.547 257.864C170.801 247.38 156.917 234.032 150.056 219.495C147.3 213.712 145.68 207.714 145.139 201.715L145.085 201.121C143.356 179.018 156.539 155.996 184.794 137.514C240.495 101.036 333.851 95.8479 393.279 125.895C423.533 141.189 439.201 162.697 439.849 184.962C440.065 191.123 439.039 197.338 436.932 203.499C431.691 218.738 419.427 233.546 399.978 246.299C344.278 282.723 250.922 287.911 191.547 257.864Z" fill="url(#paint3_radial_83_17)"/>
<path d="M152.217 335.9C112.562 315.851 90.7898 288.182 87.3861 259.215V259.053L86.8999 250.893L84.0906 202.093C84.8469 210.524 87.17 218.9 91.0059 227.061C100.676 247.434 120.126 266.241 149.191 280.94C232.499 323.038 363.457 315.797 441.578 264.619C468.861 246.786 486.041 225.98 493.389 204.633C496.36 195.987 497.765 187.286 497.495 178.639L499.656 224.467V224.521L500.412 240.301C498.575 268.186 480.099 296.396 444.658 319.634C366.537 370.757 235.578 378.053 152.217 335.9Z" fill="url(#paint4_radial_83_17)"/>
<path d="M334.499 79.7435C438.066 89.9033 502.951 147.782 479.234 209.173C455.354 270.942 351.085 312.77 246.599 302.286C142.276 291.856 77.9854 233.329 102.783 171.83C127.473 110.709 231.094 69.5837 334.499 79.7435Z" fill="url(#paint5_linear_83_17)"/>
<path d="M246.599 302.286C351.085 312.77 455.354 270.942 479.234 209.173C492.444 174.979 478.167 141.876 445.03 117.5L334.499 171.83L246.599 302.286Z" fill="url(#paint6_linear_83_17)"/>
<path d="M334.499 79.7435C231.094 69.5837 127.473 110.709 102.783 171.83H334.499L445 117.478C418.643 98.1008 380.364 84.2429 334.499 79.7435Z" fill="url(#paint7_linear_83_17)"/>
<path d="M396 112L461.5 13H414" stroke="white"/>
<path d="M335.5 258.5L230 427.5H288.5" stroke="white"/>
<path d="M420.656 312.324C420.656 312.324 419.197 313.459 416.388 315.674C414.983 316.755 413.255 318.16 411.256 319.727C409.203 321.349 406.826 323.132 404.124 325.132C402.774 326.158 401.369 327.239 399.856 328.374C398.344 329.455 396.723 330.644 395.102 331.833C393.427 333.022 391.698 334.265 389.862 335.616C388.025 336.859 386.134 338.21 384.135 339.561C376.247 345.019 367.063 350.963 356.69 357.178C346.317 363.393 334.701 369.824 321.897 376.093C309.093 382.362 295.101 388.468 279.919 393.872C278.028 394.521 276.138 395.223 274.193 395.872C272.248 396.52 270.303 397.169 268.358 397.763C264.468 399.06 260.416 400.195 256.418 401.438C248.314 403.708 239.94 405.816 231.35 407.599C222.76 409.328 213.954 410.841 204.932 411.922C195.91 413.003 186.725 413.652 177.433 413.922C158.794 414.408 140.533 413.057 123.191 409.977C105.849 406.896 89.425 402.087 74.5139 395.872C67.0043 392.792 59.927 389.279 53.2278 385.496C46.5286 381.713 40.2616 377.606 34.5349 373.174C28.8082 368.743 23.5677 364.041 19.1376 358.907C16.9226 356.313 14.8696 353.665 13.1948 350.801C12.8166 350.045 12.3844 349.342 12.0062 348.586C11.6821 347.829 11.2499 347.072 10.9797 346.316C10.7096 345.559 10.4395 344.803 10.1694 344.1C9.89923 343.344 9.6291 342.641 9.41299 341.884C7.57612 335.886 6.81977 329.887 7.03587 324.321C7.25197 318.701 8.33248 313.513 9.79118 308.865C12.7626 299.516 17.1927 292.328 21.1366 286.816C25.1345 281.304 28.7002 277.467 31.2394 274.927C33.7786 272.387 35.1832 271.252 35.1832 271.252C35.1832 271.252 33.8326 272.549 31.4555 275.197C29.1324 277.845 25.7828 281.898 22.163 287.573C18.5974 293.193 14.6535 300.543 12.2223 309.622C11.0338 314.161 10.2774 319.133 10.3314 324.429C10.3855 329.671 11.3039 335.237 13.2488 340.696C13.4649 341.398 13.735 342.047 14.0592 342.749C14.3293 343.452 14.6535 344.1 14.9236 344.803C15.1937 345.505 15.5719 346.1 15.8961 346.748C16.2743 347.397 16.6524 347.991 17.0306 348.64C18.6514 351.125 20.5963 353.557 22.7573 355.881C27.0794 360.529 32.2118 364.906 37.8845 368.905C43.5032 372.958 49.6621 376.687 56.2532 380.2C62.7903 383.658 69.7596 386.847 77.1071 389.657C91.7481 395.331 107.686 399.709 124.542 402.465C141.398 405.221 159.118 406.41 177.271 405.924C186.347 405.707 195.315 405.059 204.067 404.086C212.874 403.059 221.464 401.708 229.892 400.141C238.32 398.52 246.532 396.574 254.527 394.521C258.525 393.386 262.469 392.359 266.305 391.17C268.25 390.576 270.141 389.981 272.086 389.441C273.977 388.792 275.867 388.198 277.758 387.604C292.777 382.632 306.77 377.065 319.628 371.283C332.486 365.501 344.264 359.61 354.799 353.882C365.334 348.153 374.734 342.695 382.892 337.615C384.945 336.372 386.89 335.129 388.781 333.994C390.672 332.805 392.455 331.617 394.184 330.536C395.912 329.455 397.533 328.374 399.154 327.347C400.721 326.32 402.179 325.294 403.584 324.375C406.393 322.484 408.879 320.862 411.04 319.403C413.147 317.944 414.983 316.647 416.442 315.674C419.143 313.405 420.656 312.324 420.656 312.324Z" fill="url(#paint8_linear_83_17)"/>
<path d="M251.353 44.5364C251.353 44.5364 247.68 45.347 241.035 46.8602C237.685 47.6167 233.633 48.4814 228.933 49.5082C224.233 50.6431 218.884 51.9401 212.995 53.3451C210.024 53.9936 206.998 54.8583 203.757 55.723C200.569 56.5876 197.22 57.4523 193.816 58.371C192.952 58.5872 192.087 58.8033 191.223 59.0735C190.358 59.3437 189.494 59.614 188.576 59.8301C186.793 60.3705 185.01 60.8569 183.227 61.3973C181.39 61.9377 179.553 62.4782 177.716 63.0186C176.798 63.2888 175.826 63.559 174.907 63.8292C173.989 64.0994 173.016 64.4236 172.098 64.7479C168.316 65.9909 164.426 67.2338 160.428 68.5308L158.916 69.0172L157.457 69.5576C156.484 69.9359 155.458 70.2601 154.485 70.6384C152.486 71.341 150.488 72.0975 148.435 72.8001C144.329 74.2052 140.277 75.9885 136.171 77.6098C132.011 79.177 127.905 81.1225 123.745 82.9599C122.718 83.4463 121.638 83.8786 120.611 84.365C119.585 84.8513 118.558 85.3917 117.586 85.8781C115.587 86.9049 113.588 87.8777 111.589 88.9044C109.59 89.8772 107.699 90.958 105.754 92.0389C103.863 93.1197 101.973 94.1465 100.082 95.2273C92.8422 99.7668 85.8729 104.252 79.876 109.386C79.1197 109.981 78.3633 110.629 77.607 111.224C76.8506 111.872 76.2023 112.521 75.5 113.169C74.0953 114.466 72.6906 115.709 71.394 117.006C70.1514 118.357 68.8548 119.708 67.6663 121.005L66.7478 121.978L65.8834 123.005C65.3431 123.707 64.7489 124.356 64.2086 125.058C59.8866 130.462 56.3209 135.975 53.9437 141.379C49.0274 152.187 47.8929 162.077 48.217 168.778C48.3251 172.128 48.7033 174.776 49.0814 176.506C49.4596 178.235 49.7297 179.154 49.7297 179.154C49.7297 179.154 49.3516 178.289 48.7573 176.56C48.217 174.83 47.5687 172.29 47.0825 168.832C46.5963 165.427 46.3261 161.158 46.8124 156.294C47.2446 151.376 48.3791 145.81 50.5401 139.974C52.5931 134.083 55.9427 128.03 60.1567 122.032C60.6969 121.275 61.2372 120.519 61.7775 119.762L62.5878 118.627L63.5063 117.546C64.7489 116.087 65.9915 114.628 67.234 113.115C68.5307 111.656 69.9894 110.305 71.34 108.846C72.0423 108.143 72.7447 107.387 73.501 106.684C74.2574 106.036 75.0137 105.333 75.7701 104.631C81.821 99.0102 88.8983 94.0924 96.3539 89.1746C98.2448 88.0398 100.19 86.9049 102.135 85.77C104.08 84.6352 106.024 83.4463 108.077 82.4195C110.13 81.3927 112.183 80.3118 114.236 79.2851C115.263 78.7446 116.289 78.2042 117.37 77.7179C118.45 77.2315 119.477 76.7451 120.557 76.2587C124.825 74.3673 129.039 72.3677 133.361 70.8005C137.629 69.1793 141.789 67.45 146.003 66.153C148.11 65.4504 150.163 64.7479 152.216 64.0994C153.243 63.7751 154.269 63.3969 155.296 63.0726L156.809 62.5862L158.321 62.1539C162.373 61.019 166.371 59.8842 170.261 58.7493C171.233 58.4791 172.206 58.2089 173.178 57.9387C174.151 57.7225 175.123 57.4523 176.096 57.2361C177.987 56.8038 179.877 56.3174 181.768 55.8851C183.605 55.4528 185.442 55.0204 187.279 54.5881C188.197 54.3719 189.062 54.1558 189.98 53.9396C190.899 53.7775 191.763 53.5613 192.628 53.3992C196.139 52.6966 199.543 52.0481 202.838 51.3996C206.08 50.7511 209.213 50.1027 212.239 49.6703C218.236 48.7516 223.692 47.8869 228.501 47.1304C233.309 46.4819 237.415 46.0495 240.818 45.6172C247.572 44.9687 251.353 44.5364 251.353 44.5364Z" fill="url(#paint9_linear_83_17)"/>
<path d="M429.26 416.99C429.26 416.99 433.474 414.72 441.037 410.613C448.547 406.344 459.46 400.345 472.48 392.077C475.722 390.023 479.125 387.808 482.637 385.538C486.149 383.214 489.714 380.728 493.442 378.188C500.79 372.946 508.569 367.272 516.457 360.841C524.291 354.41 532.233 347.331 539.904 339.441C547.576 331.551 555.031 322.904 561.515 313.285C563.081 310.853 564.756 308.475 566.161 305.989C567.673 303.557 568.97 301.017 570.321 298.531C572.86 293.505 575.129 288.425 576.858 283.238C578.587 278.104 579.991 272.916 580.856 267.728C581.72 262.54 582.152 257.46 582.206 252.434C582.26 247.408 581.828 242.544 581.126 237.843C580.369 233.141 579.397 228.656 578.046 224.386C576.75 220.117 575.183 216.064 573.562 212.227C571.887 208.444 570.051 204.877 568.16 201.527C564.378 194.88 560.38 189.205 556.652 184.396C552.87 179.586 549.359 175.695 546.333 172.615C543.362 169.534 540.877 167.264 539.202 165.751C537.527 164.238 536.555 163.482 536.555 163.482C536.555 163.482 537.527 164.184 539.31 165.589C541.093 166.994 543.632 169.156 546.766 172.128C549.899 175.1 553.627 178.883 557.625 183.531C561.623 188.233 565.837 193.853 569.888 200.446C571.887 203.797 573.886 207.363 575.723 211.2C577.56 215.037 579.235 219.144 580.694 223.522C582.152 227.899 583.341 232.493 584.205 237.356C585.07 242.166 585.61 247.246 585.664 252.434C585.718 257.622 585.34 262.972 584.529 268.322C583.665 273.672 582.314 279.076 580.586 284.48C578.857 289.831 576.534 295.127 573.94 300.315C572.59 302.909 571.239 305.503 569.672 307.989C568.214 310.528 566.539 313.014 564.918 315.5C558.219 325.39 550.547 334.145 542.714 342.089C534.826 350.033 526.668 357.058 518.618 363.435C510.568 369.758 502.573 375.324 495.063 380.404C491.227 382.89 487.553 385.268 483.988 387.484C480.368 389.645 476.964 391.807 473.615 393.698C460.27 401.534 449.141 407.101 441.416 411.046C433.582 414.883 429.26 416.99 429.26 416.99Z" fill="url(#paint10_linear_83_17)"/>
<path d="M125.987 389.83L106.514 449.912L43.3988 448.325L62.9654 388.121L125.987 389.83Z" fill="#FF00AA"/>
<path d="M43.3987 448.325L14.938 408.412L34.5045 348.208L62.9653 388.121L43.3987 448.325Z" fill="#D51093"/>
<path d="M62.9653 388.121L34.5046 348.208L97.6202 349.795L125.987 389.831L62.9653 388.121Z" fill="#ED1BA7"/>
<path d="M125.987 389.831L97.6202 349.795L34.5046 348.208L14.9381 408.413L43.3988 448.325L106.514 449.912L125.987 389.831Z" fill="url(#paint11_linear_83_17)"/>
<path d="M589.975 337.24L583.52 393.71L527.565 403.573L534.081 346.978L589.975 337.24Z" fill="#FF00AA"/>
<path d="M527.565 403.573L495.339 373.446L501.855 316.852L534.081 346.978L527.565 403.573Z" fill="#D51093"/>
<path d="M534.081 346.978L501.855 316.852L557.81 306.989L589.975 337.241L534.081 346.978Z" fill="#ED1BA7"/>
<path d="M589.975 337.24L557.81 306.989L501.855 316.852L495.34 373.446L527.565 403.573L583.52 393.711L589.975 337.24Z" fill="url(#paint12_linear_83_17)"/>
<path d="M76.8521 83.4743L98.185 116.37L72.7214 146.164L51.3664 113.175L76.8521 83.4743Z" fill="#FF00AA"/>
<path d="M72.7214 146.164L42.3502 144.26L20.9951 111.271L51.3664 113.175L72.7214 146.164Z" fill="#D51093"/>
<path d="M51.3665 113.175L20.9953 111.271L46.4588 81.4773L76.8523 83.4744L51.3665 113.175Z" fill="#ED1BA7"/>
<path d="M76.8523 83.4744L46.4588 81.4773L20.9953 111.271L42.3503 144.26L72.7216 146.164L98.1851 116.37L76.8523 83.4744Z" fill="url(#paint13_linear_83_17)"/>
<path d="M598.957 48.8974L599.28 104.709L546.659 122.526L546.38 66.5836L598.957 48.8974Z" fill="#FF00AA"/>
<path d="M546.21 121.891L511.7 97.3158L511.422 41.2638L545.932 65.8389L546.21 121.891Z" fill="#D51093"/>
<path d="M545.58 66.7322L510.879 41.945L563.89 23.9355L598.547 48.8543L545.58 66.7322Z" fill="#ED1BA7"/>
<path d="M598.706 49.5324L563.62 24.4275L510.722 41.264L511.782 96.9148L546.91 121.891L599.808 105.055L598.706 49.5324Z" fill="url(#paint14_linear_83_17)"/>
<path d="M312.988 18.18C312.028 18.18 311.134 18.024 310.306 17.712C309.49 17.388 308.776 16.938 308.164 16.362C307.564 15.774 307.096 15.084 306.76 14.292C306.424 13.5 306.256 12.636 306.256 11.7C306.256 10.764 306.424 9.9 306.76 9.108C307.096 8.316 307.57 7.632 308.182 7.056C308.794 6.468 309.508 6.018 310.324 5.706C311.14 5.382 312.034 5.22 313.006 5.22C314.038 5.22 314.98 5.4 315.832 5.76C316.684 6.108 317.404 6.63 317.992 7.326L316.48 8.748C316.024 8.256 315.514 7.89 314.95 7.65C314.386 7.398 313.774 7.272 313.114 7.272C312.454 7.272 311.848 7.38 311.296 7.596C310.756 7.812 310.282 8.118 309.874 8.514C309.478 8.91 309.166 9.378 308.938 9.918C308.722 10.458 308.614 11.052 308.614 11.7C308.614 12.348 308.722 12.942 308.938 13.482C309.166 14.022 309.478 14.49 309.874 14.886C310.282 15.282 310.756 15.588 311.296 15.804C311.848 16.02 312.454 16.128 313.114 16.128C313.774 16.128 314.386 16.008 314.95 15.768C315.514 15.516 316.024 15.138 316.48 14.634L317.992 16.074C317.404 16.758 316.684 17.28 315.832 17.64C314.98 18 314.032 18.18 312.988 18.18ZM323.569 18.126C322.585 18.126 321.709 17.916 320.941 17.496C320.173 17.064 319.567 16.476 319.123 15.732C318.679 14.988 318.457 14.142 318.457 13.194C318.457 12.234 318.679 11.388 319.123 10.656C319.567 9.912 320.173 9.33 320.941 8.91C321.709 8.49 322.585 8.28 323.569 8.28C324.565 8.28 325.447 8.49 326.215 8.91C326.995 9.33 327.601 9.906 328.033 10.638C328.477 11.37 328.699 12.222 328.699 13.194C328.699 14.142 328.477 14.988 328.033 15.732C327.601 16.476 326.995 17.064 326.215 17.496C325.447 17.916 324.565 18.126 323.569 18.126ZM323.569 16.2C324.121 16.2 324.613 16.08 325.045 15.84C325.477 15.6 325.813 15.252 326.053 14.796C326.305 14.34 326.431 13.806 326.431 13.194C326.431 12.57 326.305 12.036 326.053 11.592C325.813 11.136 325.477 10.788 325.045 10.548C324.613 10.308 324.127 10.188 323.587 10.188C323.035 10.188 322.543 10.308 322.111 10.548C321.691 10.788 321.355 11.136 321.103 11.592C320.851 12.036 320.725 12.57 320.725 13.194C320.725 13.806 320.851 14.34 321.103 14.796C321.355 15.252 321.691 15.6 322.111 15.84C322.543 16.08 323.029 16.2 323.569 16.2ZM335.905 8.28C336.673 8.28 337.357 8.43 337.957 8.73C338.569 9.03 339.049 9.492 339.397 10.116C339.745 10.728 339.919 11.52 339.919 12.492V18H337.669V12.78C337.669 11.928 337.465 11.292 337.057 10.872C336.661 10.452 336.103 10.242 335.383 10.242C334.855 10.242 334.387 10.35 333.979 10.566C333.571 10.782 333.253 11.106 333.025 11.538C332.809 11.958 332.701 12.492 332.701 13.14V18H330.451V8.388H332.593V10.98L332.215 10.188C332.551 9.576 333.037 9.108 333.673 8.784C334.321 8.448 335.065 8.28 335.905 8.28ZM345.343 18.126C344.539 18.126 343.765 18.024 343.021 17.82C342.289 17.604 341.707 17.346 341.275 17.046L342.139 15.336C342.571 15.612 343.087 15.84 343.687 16.02C344.287 16.2 344.887 16.29 345.487 16.29C346.195 16.29 346.705 16.194 347.017 16.002C347.341 15.81 347.503 15.552 347.503 15.228C347.503 14.964 347.395 14.766 347.179 14.634C346.963 14.49 346.681 14.382 346.333 14.31C345.985 14.238 345.595 14.172 345.163 14.112C344.743 14.052 344.317 13.974 343.885 13.878C343.465 13.77 343.081 13.62 342.733 13.428C342.385 13.224 342.103 12.954 341.887 12.618C341.671 12.282 341.563 11.838 341.563 11.286C341.563 10.674 341.737 10.146 342.085 9.702C342.433 9.246 342.919 8.898 343.543 8.658C344.179 8.406 344.929 8.28 345.793 8.28C346.441 8.28 347.095 8.352 347.755 8.496C348.415 8.64 348.961 8.844 349.393 9.108L348.529 10.818C348.073 10.542 347.611 10.356 347.143 10.26C346.687 10.152 346.231 10.098 345.775 10.098C345.091 10.098 344.581 10.2 344.245 10.404C343.921 10.608 343.759 10.866 343.759 11.178C343.759 11.466 343.867 11.682 344.083 11.826C344.299 11.97 344.581 12.084 344.929 12.168C345.277 12.252 345.661 12.324 346.081 12.384C346.513 12.432 346.939 12.51 347.359 12.618C347.779 12.726 348.163 12.876 348.511 13.068C348.871 13.248 349.159 13.506 349.375 13.842C349.591 14.178 349.699 14.616 349.699 15.156C349.699 15.756 349.519 16.278 349.159 16.722C348.811 17.166 348.313 17.514 347.665 17.766C347.017 18.006 346.243 18.126 345.343 18.126ZM355.305 18.126C354.489 18.126 353.769 17.976 353.145 17.676C352.521 17.364 352.035 16.896 351.687 16.272C351.339 15.636 351.165 14.838 351.165 13.878V8.388H353.415V13.572C353.415 14.436 353.607 15.084 353.991 15.516C354.387 15.936 354.945 16.146 355.665 16.146C356.193 16.146 356.649 16.038 357.033 15.822C357.429 15.606 357.735 15.282 357.951 14.85C358.179 14.418 358.293 13.884 358.293 13.248V8.388H360.543V18H358.401V15.408L358.779 16.2C358.455 16.824 357.981 17.304 357.357 17.64C356.733 17.964 356.049 18.126 355.305 18.126ZM375.221 8.28C375.989 8.28 376.667 8.43 377.255 8.73C377.855 9.03 378.323 9.492 378.659 10.116C378.995 10.728 379.163 11.52 379.163 12.492V18H376.913V12.78C376.913 11.928 376.727 11.292 376.355 10.872C375.983 10.452 375.449 10.242 374.753 10.242C374.261 10.242 373.823 10.35 373.439 10.566C373.067 10.782 372.773 11.1 372.557 11.52C372.353 11.94 372.251 12.474 372.251 13.122V18H370.001V12.78C370.001 11.928 369.815 11.292 369.443 10.872C369.071 10.452 368.537 10.242 367.841 10.242C367.349 10.242 366.911 10.35 366.527 10.566C366.155 10.782 365.861 11.1 365.645 11.52C365.441 11.94 365.339 12.474 365.339 13.122V18H363.089V8.388H365.231V10.944L364.853 10.188C365.177 9.564 365.645 9.09 366.257 8.766C366.881 8.442 367.589 8.28 368.381 8.28C369.281 8.28 370.061 8.502 370.721 8.946C371.393 9.39 371.837 10.062 372.053 10.962L371.171 10.656C371.483 9.936 371.999 9.36 372.719 8.928C373.439 8.496 374.273 8.28 375.221 8.28ZM386.174 18.126C385.106 18.126 384.17 17.916 383.366 17.496C382.574 17.064 381.956 16.476 381.512 15.732C381.08 14.988 380.864 14.142 380.864 13.194C380.864 12.234 381.074 11.388 381.494 10.656C381.926 9.912 382.514 9.33 383.258 8.91C384.014 8.49 384.872 8.28 385.832 8.28C386.768 8.28 387.602 8.484 388.334 8.892C389.066 9.3 389.642 9.876 390.062 10.62C390.482 11.364 390.692 12.24 390.692 13.248C390.692 13.344 390.686 13.452 390.674 13.572C390.674 13.692 390.668 13.806 390.656 13.914H382.646V12.42H389.468L388.586 12.888C388.598 12.336 388.484 11.85 388.244 11.43C388.004 11.01 387.674 10.68 387.254 10.44C386.846 10.2 386.372 10.08 385.832 10.08C385.28 10.08 384.794 10.2 384.374 10.44C383.966 10.68 383.642 11.016 383.402 11.448C383.174 11.868 383.06 12.366 383.06 12.942V13.302C383.06 13.878 383.192 14.388 383.456 14.832C383.72 15.276 384.092 15.618 384.572 15.858C385.052 16.098 385.604 16.218 386.228 16.218C386.768 16.218 387.254 16.134 387.686 15.966C388.118 15.798 388.502 15.534 388.838 15.174L390.044 16.56C389.612 17.064 389.066 17.454 388.406 17.73C387.758 17.994 387.014 18.126 386.174 18.126ZM392.453 18V8.388H394.595V11.034L394.343 10.26C394.631 9.612 395.081 9.12 395.693 8.784C396.317 8.448 397.091 8.28 398.015 8.28V10.422C397.919 10.398 397.829 10.386 397.745 10.386C397.661 10.374 397.577 10.368 397.493 10.368C396.641 10.368 395.963 10.62 395.459 11.124C394.955 11.616 394.703 12.354 394.703 13.338V18H392.453Z" fill="white"/>
<path d="M192 213L51 22H94" stroke="white"/>
<path d="M311.925 433.18C310.965 433.18 310.071 433.024 309.243 432.712C308.427 432.388 307.713 431.938 307.101 431.362C306.501 430.774 306.033 430.084 305.697 429.292C305.361 428.5 305.193 427.636 305.193 426.7C305.193 425.764 305.361 424.9 305.697 424.108C306.033 423.316 306.507 422.632 307.119 422.056C307.731 421.468 308.445 421.018 309.261 420.706C310.077 420.382 310.971 420.22 311.943 420.22C312.975 420.22 313.917 420.4 314.769 420.76C315.621 421.108 316.341 421.63 316.929 422.326L315.417 423.748C314.961 423.256 314.451 422.89 313.887 422.65C313.323 422.398 312.711 422.272 312.051 422.272C311.391 422.272 310.785 422.38 310.233 422.596C309.693 422.812 309.219 423.118 308.811 423.514C308.415 423.91 308.103 424.378 307.875 424.918C307.659 425.458 307.551 426.052 307.551 426.7C307.551 427.348 307.659 427.942 307.875 428.482C308.103 429.022 308.415 429.49 308.811 429.886C309.219 430.282 309.693 430.588 310.233 430.804C310.785 431.02 311.391 431.128 312.051 431.128C312.711 431.128 313.323 431.008 313.887 430.768C314.451 430.516 314.961 430.138 315.417 429.634L316.929 431.074C316.341 431.758 315.621 432.28 314.769 432.64C313.917 433 312.969 433.18 311.925 433.18ZM322.506 433.126C321.522 433.126 320.646 432.916 319.878 432.496C319.11 432.064 318.504 431.476 318.06 430.732C317.616 429.988 317.394 429.142 317.394 428.194C317.394 427.234 317.616 426.388 318.06 425.656C318.504 424.912 319.11 424.33 319.878 423.91C320.646 423.49 321.522 423.28 322.506 423.28C323.502 423.28 324.384 423.49 325.152 423.91C325.932 424.33 326.538 424.906 326.97 425.638C327.414 426.37 327.636 427.222 327.636 428.194C327.636 429.142 327.414 429.988 326.97 430.732C326.538 431.476 325.932 432.064 325.152 432.496C324.384 432.916 323.502 433.126 322.506 433.126ZM322.506 431.2C323.058 431.2 323.55 431.08 323.982 430.84C324.414 430.6 324.75 430.252 324.99 429.796C325.242 429.34 325.368 428.806 325.368 428.194C325.368 427.57 325.242 427.036 324.99 426.592C324.75 426.136 324.414 425.788 323.982 425.548C323.55 425.308 323.064 425.188 322.524 425.188C321.972 425.188 321.48 425.308 321.048 425.548C320.628 425.788 320.292 426.136 320.04 426.592C319.788 427.036 319.662 427.57 319.662 428.194C319.662 428.806 319.788 429.34 320.04 429.796C320.292 430.252 320.628 430.6 321.048 430.84C321.48 431.08 321.966 431.2 322.506 431.2ZM329.388 433V423.388H331.53V426.034L331.278 425.26C331.566 424.612 332.016 424.12 332.628 423.784C333.252 423.448 334.026 423.28 334.95 423.28V425.422C334.854 425.398 334.764 425.386 334.68 425.386C334.596 425.374 334.512 425.368 334.428 425.368C333.576 425.368 332.898 425.62 332.394 426.124C331.89 426.616 331.638 427.354 331.638 428.338V433H329.388ZM341.787 433.126C341.007 433.126 340.293 432.946 339.645 432.586C339.009 432.226 338.499 431.686 338.115 430.966C337.743 430.234 337.557 429.31 337.557 428.194C337.557 427.066 337.737 426.142 338.097 425.422C338.469 424.702 338.973 424.168 339.609 423.82C340.245 423.46 340.971 423.28 341.787 423.28C342.735 423.28 343.569 423.484 344.289 423.892C345.021 424.3 345.597 424.87 346.017 425.602C346.449 426.334 346.665 427.198 346.665 428.194C346.665 429.19 346.449 430.06 346.017 430.804C345.597 431.536 345.021 432.106 344.289 432.514C343.569 432.922 342.735 433.126 341.787 433.126ZM336.459 436.492V423.388H338.601V425.656L338.529 428.212L338.709 430.768V436.492H336.459ZM341.535 431.2C342.075 431.2 342.555 431.08 342.975 430.84C343.407 430.6 343.749 430.252 344.001 429.796C344.253 429.34 344.379 428.806 344.379 428.194C344.379 427.57 344.253 427.036 344.001 426.592C343.749 426.136 343.407 425.788 342.975 425.548C342.555 425.308 342.075 425.188 341.535 425.188C340.995 425.188 340.509 425.308 340.077 425.548C339.645 425.788 339.303 426.136 339.051 426.592C338.799 427.036 338.673 427.57 338.673 428.194C338.673 428.806 338.799 429.34 339.051 429.796C339.303 430.252 339.645 430.6 340.077 430.84C340.509 431.08 340.995 431.2 341.535 431.2ZM352.718 433.126C351.734 433.126 350.858 432.916 350.09 432.496C349.322 432.064 348.716 431.476 348.272 430.732C347.828 429.988 347.606 429.142 347.606 428.194C347.606 427.234 347.828 426.388 348.272 425.656C348.716 424.912 349.322 424.33 350.09 423.91C350.858 423.49 351.734 423.28 352.718 423.28C353.714 423.28 354.596 423.49 355.364 423.91C356.144 424.33 356.75 424.906 357.182 425.638C357.626 426.37 357.848 427.222 357.848 428.194C357.848 429.142 357.626 429.988 357.182 430.732C356.75 431.476 356.144 432.064 355.364 432.496C354.596 432.916 353.714 433.126 352.718 433.126ZM352.718 431.2C353.27 431.2 353.762 431.08 354.194 430.84C354.626 430.6 354.962 430.252 355.202 429.796C355.454 429.34 355.58 428.806 355.58 428.194C355.58 427.57 355.454 427.036 355.202 426.592C354.962 426.136 354.626 425.788 354.194 425.548C353.762 425.308 353.276 425.188 352.736 425.188C352.184 425.188 351.692 425.308 351.26 425.548C350.84 425.788 350.504 426.136 350.252 426.592C350 427.036 349.874 427.57 349.874 428.194C349.874 428.806 350 429.34 350.252 429.796C350.504 430.252 350.84 430.6 351.26 430.84C351.692 431.08 352.178 431.2 352.718 431.2ZM359.6 433V423.388H361.742V426.034L361.49 425.26C361.778 424.612 362.228 424.12 362.84 423.784C363.464 423.448 364.238 423.28 365.162 423.28V425.422C365.066 425.398 364.976 425.386 364.892 425.386C364.808 425.374 364.724 425.368 364.64 425.368C363.788 425.368 363.11 425.62 362.606 426.124C362.102 426.616 361.85 427.354 361.85 428.338V433H359.6ZM371.907 433V431.056L371.781 430.642V427.24C371.781 426.58 371.583 426.07 371.187 425.71C370.791 425.338 370.191 425.152 369.387 425.152C368.847 425.152 368.313 425.236 367.785 425.404C367.269 425.572 366.831 425.806 366.471 426.106L365.589 424.468C366.105 424.072 366.717 423.778 367.425 423.586C368.145 423.382 368.889 423.28 369.657 423.28C371.049 423.28 372.123 423.616 372.879 424.288C373.647 424.948 374.031 425.974 374.031 427.366V433H371.907ZM368.883 433.126C368.163 433.126 367.533 433.006 366.993 432.766C366.453 432.514 366.033 432.172 365.733 431.74C365.445 431.296 365.301 430.798 365.301 430.246C365.301 429.706 365.427 429.22 365.679 428.788C365.943 428.356 366.369 428.014 366.957 427.762C367.545 427.51 368.325 427.384 369.297 427.384H372.087V428.878H369.459C368.691 428.878 368.175 429.004 367.911 429.256C367.647 429.496 367.515 429.796 367.515 430.156C367.515 430.564 367.677 430.888 368.001 431.128C368.325 431.368 368.775 431.488 369.351 431.488C369.903 431.488 370.395 431.362 370.827 431.11C371.271 430.858 371.589 430.486 371.781 429.994L372.159 431.344C371.943 431.908 371.553 432.346 370.989 432.658C370.437 432.97 369.735 433.126 368.883 433.126ZM380.137 433.126C379.081 433.126 378.265 432.856 377.689 432.316C377.113 431.764 376.825 430.954 376.825 429.886V421.264H379.075V429.832C379.075 430.288 379.189 430.642 379.417 430.894C379.657 431.146 379.987 431.272 380.407 431.272C380.911 431.272 381.331 431.14 381.667 430.876L382.297 432.478C382.033 432.694 381.709 432.856 381.325 432.964C380.941 433.072 380.545 433.126 380.137 433.126ZM375.241 425.26V423.46H381.649V425.26H375.241ZM383.748 433V423.388H385.998V433H383.748ZM384.882 421.804C384.462 421.804 384.114 421.672 383.838 421.408C383.574 421.144 383.442 420.826 383.442 420.454C383.442 420.07 383.574 419.752 383.838 419.5C384.114 419.236 384.462 419.104 384.882 419.104C385.302 419.104 385.644 419.23 385.908 419.482C386.184 419.722 386.322 420.028 386.322 420.4C386.322 420.796 386.19 421.132 385.926 421.408C385.662 421.672 385.314 421.804 384.882 421.804ZM392.871 433.126C391.887 433.126 391.011 432.916 390.243 432.496C389.475 432.064 388.869 431.476 388.425 430.732C387.981 429.988 387.759 429.142 387.759 428.194C387.759 427.234 387.981 426.388 388.425 425.656C388.869 424.912 389.475 424.33 390.243 423.91C391.011 423.49 391.887 423.28 392.871 423.28C393.867 423.28 394.749 423.49 395.517 423.91C396.297 424.33 396.903 424.906 397.335 425.638C397.779 426.37 398.001 427.222 398.001 428.194C398.001 429.142 397.779 429.988 397.335 430.732C396.903 431.476 396.297 432.064 395.517 432.496C394.749 432.916 393.867 433.126 392.871 433.126ZM392.871 431.2C393.423 431.2 393.915 431.08 394.347 430.84C394.779 430.6 395.115 430.252 395.355 429.796C395.607 429.34 395.733 428.806 395.733 428.194C395.733 427.57 395.607 427.036 395.355 426.592C395.115 426.136 394.779 425.788 394.347 425.548C393.915 425.308 393.429 425.188 392.889 425.188C392.337 425.188 391.845 425.308 391.413 425.548C390.993 425.788 390.657 426.136 390.405 426.592C390.153 427.036 390.027 427.57 390.027 428.194C390.027 428.806 390.153 429.34 390.405 429.796C390.657 430.252 390.993 430.6 391.413 430.84C391.845 431.08 392.331 431.2 392.871 431.2ZM405.206 423.28C405.974 423.28 406.658 423.43 407.258 423.73C407.87 424.03 408.35 424.492 408.698 425.116C409.046 425.728 409.22 426.52 409.22 427.492V433H406.97V427.78C406.97 426.928 406.766 426.292 406.358 425.872C405.962 425.452 405.404 425.242 404.684 425.242C404.156 425.242 403.688 425.35 403.28 425.566C402.872 425.782 402.554 426.106 402.326 426.538C402.11 426.958 402.002 427.492 402.002 428.14V433H399.752V423.388H401.894V425.98L401.516 425.188C401.852 424.576 402.338 424.108 402.974 423.784C403.622 423.448 404.366 423.28 405.206 423.28Z" fill="white"/>
<path d="M113.701 27.18C112.717 27.18 111.811 27.024 110.983 26.712C110.167 26.388 109.453 25.938 108.841 25.362C108.229 24.774 107.755 24.084 107.419 23.292C107.083 22.5 106.915 21.636 106.915 20.7C106.915 19.764 107.083 18.9 107.419 18.108C107.755 17.316 108.229 16.632 108.841 16.056C109.465 15.468 110.191 15.018 111.019 14.706C111.847 14.382 112.753 14.22 113.737 14.22C114.805 14.22 115.765 14.394 116.617 14.742C117.481 15.09 118.207 15.6 118.795 16.272L117.319 17.712C116.827 17.22 116.293 16.86 115.717 16.632C115.153 16.392 114.529 16.272 113.845 16.272C113.185 16.272 112.573 16.38 112.009 16.596C111.445 16.812 110.959 17.118 110.551 17.514C110.143 17.91 109.825 18.378 109.597 18.918C109.381 19.458 109.273 20.052 109.273 20.7C109.273 21.336 109.381 21.924 109.597 22.464C109.825 23.004 110.143 23.478 110.551 23.886C110.959 24.282 111.439 24.588 111.991 24.804C112.543 25.02 113.155 25.128 113.827 25.128C114.451 25.128 115.051 25.032 115.627 24.84C116.215 24.636 116.773 24.3 117.301 23.832L118.633 25.578C117.973 26.106 117.205 26.508 116.329 26.784C115.465 27.048 114.589 27.18 113.701 27.18ZM116.419 25.272V20.556H118.633V25.578L116.419 25.272ZM125.423 27.126C124.439 27.126 123.563 26.916 122.795 26.496C122.027 26.064 121.421 25.476 120.977 24.732C120.533 23.988 120.311 23.142 120.311 22.194C120.311 21.234 120.533 20.388 120.977 19.656C121.421 18.912 122.027 18.33 122.795 17.91C123.563 17.49 124.439 17.28 125.423 17.28C126.419 17.28 127.301 17.49 128.069 17.91C128.849 18.33 129.455 18.906 129.887 19.638C130.331 20.37 130.553 21.222 130.553 22.194C130.553 23.142 130.331 23.988 129.887 24.732C129.455 25.476 128.849 26.064 128.069 26.496C127.301 26.916 126.419 27.126 125.423 27.126ZM125.423 25.2C125.975 25.2 126.467 25.08 126.899 24.84C127.331 24.6 127.667 24.252 127.907 23.796C128.159 23.34 128.285 22.806 128.285 22.194C128.285 21.57 128.159 21.036 127.907 20.592C127.667 20.136 127.331 19.788 126.899 19.548C126.467 19.308 125.981 19.188 125.441 19.188C124.889 19.188 124.397 19.308 123.965 19.548C123.545 19.788 123.209 20.136 122.957 20.592C122.705 21.036 122.579 21.57 122.579 22.194C122.579 22.806 122.705 23.34 122.957 23.796C123.209 24.252 123.545 24.6 123.965 24.84C124.397 25.08 124.883 25.2 125.423 25.2ZM134.597 27L130.475 17.388H132.815L136.361 25.866H135.209L138.881 17.388H141.041L136.919 27H134.597ZM146.302 27.126C145.234 27.126 144.298 26.916 143.494 26.496C142.702 26.064 142.084 25.476 141.64 24.732C141.208 23.988 140.992 23.142 140.992 22.194C140.992 21.234 141.202 20.388 141.622 19.656C142.054 18.912 142.642 18.33 143.386 17.91C144.142 17.49 145 17.28 145.96 17.28C146.896 17.28 147.73 17.484 148.462 17.892C149.194 18.3 149.77 18.876 150.19 19.62C150.61 20.364 150.82 21.24 150.82 22.248C150.82 22.344 150.814 22.452 150.802 22.572C150.802 22.692 150.796 22.806 150.784 22.914H142.774V21.42H149.596L148.714 21.888C148.726 21.336 148.612 20.85 148.372 20.43C148.132 20.01 147.802 19.68 147.382 19.44C146.974 19.2 146.5 19.08 145.96 19.08C145.408 19.08 144.922 19.2 144.502 19.44C144.094 19.68 143.77 20.016 143.53 20.448C143.302 20.868 143.188 21.366 143.188 21.942V22.302C143.188 22.878 143.32 23.388 143.584 23.832C143.848 24.276 144.22 24.618 144.7 24.858C145.18 25.098 145.732 25.218 146.356 25.218C146.896 25.218 147.382 25.134 147.814 24.966C148.246 24.798 148.63 24.534 148.966 24.174L150.172 25.56C149.74 26.064 149.194 26.454 148.534 26.73C147.886 26.994 147.142 27.126 146.302 27.126ZM152.581 27V17.388H154.723V20.034L154.471 19.26C154.759 18.612 155.209 18.12 155.821 17.784C156.445 17.448 157.219 17.28 158.143 17.28V19.422C158.047 19.398 157.957 19.386 157.873 19.386C157.789 19.374 157.705 19.368 157.621 19.368C156.769 19.368 156.091 19.62 155.587 20.124C155.083 20.616 154.831 21.354 154.831 22.338V27H152.581ZM165.106 17.28C165.874 17.28 166.558 17.43 167.158 17.73C167.77 18.03 168.25 18.492 168.598 19.116C168.946 19.728 169.12 20.52 169.12 21.492V27H166.87V21.78C166.87 20.928 166.666 20.292 166.258 19.872C165.862 19.452 165.304 19.242 164.584 19.242C164.056 19.242 163.588 19.35 163.18 19.566C162.772 19.782 162.454 20.106 162.226 20.538C162.01 20.958 161.902 21.492 161.902 22.14V27H159.652V17.388H161.794V19.98L161.416 19.188C161.752 18.576 162.238 18.108 162.874 17.784C163.522 17.448 164.266 17.28 165.106 17.28ZM183.706 17.28C184.474 17.28 185.152 17.43 185.74 17.73C186.34 18.03 186.808 18.492 187.144 19.116C187.48 19.728 187.648 20.52 187.648 21.492V27H185.398V21.78C185.398 20.928 185.212 20.292 184.84 19.872C184.468 19.452 183.934 19.242 183.238 19.242C182.746 19.242 182.308 19.35 181.924 19.566C181.552 19.782 181.258 20.1 181.042 20.52C180.838 20.94 180.736 21.474 180.736 22.122V27H178.486V21.78C178.486 20.928 178.3 20.292 177.928 19.872C177.556 19.452 177.022 19.242 176.326 19.242C175.834 19.242 175.396 19.35 175.012 19.566C174.64 19.782 174.346 20.1 174.13 20.52C173.926 20.94 173.824 21.474 173.824 22.122V27H171.574V17.388H173.716V19.944L173.338 19.188C173.662 18.564 174.13 18.09 174.742 17.766C175.366 17.442 176.074 17.28 176.866 17.28C177.766 17.28 178.546 17.502 179.206 17.946C179.878 18.39 180.322 19.062 180.538 19.962L179.656 19.656C179.968 18.936 180.484 18.36 181.204 17.928C181.924 17.496 182.758 17.28 183.706 17.28ZM194.659 27.126C193.591 27.126 192.655 26.916 191.851 26.496C191.059 26.064 190.441 25.476 189.997 24.732C189.565 23.988 189.349 23.142 189.349 22.194C189.349 21.234 189.559 20.388 189.979 19.656C190.411 18.912 190.999 18.33 191.743 17.91C192.499 17.49 193.357 17.28 194.317 17.28C195.253 17.28 196.087 17.484 196.819 17.892C197.551 18.3 198.127 18.876 198.547 19.62C198.967 20.364 199.177 21.24 199.177 22.248C199.177 22.344 199.171 22.452 199.159 22.572C199.159 22.692 199.153 22.806 199.141 22.914H191.131V21.42H197.953L197.071 21.888C197.083 21.336 196.969 20.85 196.729 20.43C196.489 20.01 196.159 19.68 195.739 19.44C195.331 19.2 194.857 19.08 194.317 19.08C193.765 19.08 193.279 19.2 192.859 19.44C192.451 19.68 192.127 20.016 191.887 20.448C191.659 20.868 191.545 21.366 191.545 21.942V22.302C191.545 22.878 191.677 23.388 191.941 23.832C192.205 24.276 192.577 24.618 193.057 24.858C193.537 25.098 194.089 25.218 194.713 25.218C195.253 25.218 195.739 25.134 196.171 24.966C196.603 24.798 196.987 24.534 197.323 24.174L198.529 25.56C198.097 26.064 197.551 26.454 196.891 26.73C196.243 26.994 195.499 27.126 194.659 27.126ZM206.392 17.28C207.16 17.28 207.844 17.43 208.444 17.73C209.056 18.03 209.536 18.492 209.884 19.116C210.232 19.728 210.406 20.52 210.406 21.492V27H208.156V21.78C208.156 20.928 207.952 20.292 207.544 19.872C207.148 19.452 206.59 19.242 205.87 19.242C205.342 19.242 204.874 19.35 204.466 19.566C204.058 19.782 203.74 20.106 203.512 20.538C203.296 20.958 203.188 21.492 203.188 22.14V27H200.938V17.388H203.08V19.98L202.702 19.188C203.038 18.576 203.524 18.108 204.16 17.784C204.808 17.448 205.552 17.28 206.392 17.28ZM216.478 27.126C215.422 27.126 214.606 26.856 214.03 26.316C213.454 25.764 213.166 24.954 213.166 23.886V15.264H215.416V23.832C215.416 24.288 215.53 24.642 215.758 24.894C215.998 25.146 216.328 25.272 216.748 25.272C217.252 25.272 217.672 25.14 218.008 24.876L218.638 26.478C218.374 26.694 218.05 26.856 217.666 26.964C217.282 27.072 216.886 27.126 216.478 27.126ZM211.582 19.26V17.46H217.99V19.26H211.582ZM223.059 27.126C222.255 27.126 221.481 27.024 220.737 26.82C220.005 26.604 219.423 26.346 218.991 26.046L219.855 24.336C220.287 24.612 220.803 24.84 221.403 25.02C222.003 25.2 222.603 25.29 223.203 25.29C223.911 25.29 224.421 25.194 224.733 25.002C225.057 24.81 225.219 24.552 225.219 24.228C225.219 23.964 225.111 23.766 224.895 23.634C224.679 23.49 224.397 23.382 224.049 23.31C223.701 23.238 223.311 23.172 222.879 23.112C222.459 23.052 222.033 22.974 221.601 22.878C221.181 22.77 220.797 22.62 220.449 22.428C220.101 22.224 219.819 21.954 219.603 21.618C219.387 21.282 219.279 20.838 219.279 20.286C219.279 19.674 219.453 19.146 219.801 18.702C220.149 18.246 220.635 17.898 221.259 17.658C221.895 17.406 222.645 17.28 223.509 17.28C224.157 17.28 224.811 17.352 225.471 17.496C226.131 17.64 226.677 17.844 227.109 18.108L226.245 19.818C225.789 19.542 225.327 19.356 224.859 19.26C224.403 19.152 223.947 19.098 223.491 19.098C222.807 19.098 222.297 19.2 221.961 19.404C221.637 19.608 221.475 19.866 221.475 20.178C221.475 20.466 221.583 20.682 221.799 20.826C222.015 20.97 222.297 21.084 222.645 21.168C222.993 21.252 223.377 21.324 223.797 21.384C224.229 21.432 224.655 21.51 225.075 21.618C225.495 21.726 225.879 21.876 226.227 22.068C226.587 22.248 226.875 22.506 227.091 22.842C227.307 23.178 227.415 23.616 227.415 24.156C227.415 24.756 227.235 25.278 226.875 25.722C226.527 26.166 226.029 26.514 225.381 26.766C224.733 27.006 223.959 27.126 223.059 27.126Z" fill="white"/>
<circle cx="92.5" cy="21.5" r="5.5" fill="white"/>
<circle cx="412.5" cy="12.5" r="5.5" fill="white"/>
<circle cx="290.5" cy="427.5" r="5.5" fill="white"/>
<defs>
<filter id="filter0_dddd_83_17" x="37.1379" y="105.874" width="510.255" height="321.813" filterUnits="userSpaceOnUse" color-interpolation-filters="sRGB">
<feFlood flood-opacity="0" result="BackgroundImageFix"/>
<feColorMatrix in="SourceAlpha" type="matrix" values="0 0 0 0 0 0 0 0 0 0 0 0 0 0 0 0 0 0 127 0" result="hardAlpha"/>
<feMorphology radius="4" operator="erode" in="SourceAlpha" result="effect1_dropShadow_83_17"/>
<feOffset dy="8"/>
<feGaussianBlur stdDeviation="4"/>
<feColorMatrix type="matrix" values="0 0 0 0 0.960784 0 0 0 0 0.270588 0 0 0 0 0.384314 0 0 0 0.12 0"/>
<feBlend mode="normal" in2="BackgroundImageFix" result="effect1_dropShadow_83_17"/>
<feColorMatrix in="SourceAlpha" type="matrix" values="0 0 0 0 0 0 0 0 0 0 0 0 0 0 0 0 0 0 127 0" result="hardAlpha"/>
<feOffset dy="16"/>
<feGaussianBlur stdDeviation="12"/>
<feColorMatrix type="matrix" values="0 0 0 0 0.960784 0 0 0 0 0.270588 0 0 0 0 0.384314 0 0 0 0.24 0"/>
<feBlend mode="normal" in2="effect1_dropShadow_83_17" result="effect2_dropShadow_83_17"/>
<feColorMatrix in="SourceAlpha" type="matrix" values="0 0 0 0 0 0 0 0 0 0 0 0 0 0 0 0 0 0 127 0" result="hardAlpha"/>
<feMorphology radius="1" operator="erode" in="SourceAlpha" result="effect3_dropShadow_83_17"/>
<feOffset dy="2"/>
<feGaussianBlur stdDeviation="2"/>
<feColorMatrix type="matrix" values="0 0 0 0 0.105882 0 0 0 0 0.0392157 0 0 0 0 0.321569 0 0 0 0.12 0"/>
<feBlend mode="normal" in2="effect2_dropShadow_83_17" result="effect3_dropShadow_83_17"/>
<feColorMatrix in="SourceAlpha" type="matrix" values="0 0 0 0 0 0 0 0 0 0 0 0 0 0 0 0 0 0 127 0" result="hardAlpha"/>
<feOffset/>
<feGaussianBlur stdDeviation="0.5"/>
<feColorMatrix type="matrix" values="0 0 0 0 0.960784 0 0 0 0 0.270588 0 0 0 0 0.384314 0 0 0 0.24 0"/>
<feBlend mode="normal" in2="effect3_dropShadow_83_17" result="effect4_dropShadow_83_17"/>
<feBlend mode="normal" in="SourceGraphic" in2="effect4_dropShadow_83_17" result="shape"/>
</filter>
<linearGradient id="paint0_linear_83_17" x1="-169.99" y1="250.781" x2="70.139" y2="656.169" gradientUnits="userSpaceOnUse">
<stop stop-color="#FF2FBA"/>
<stop offset="0.541068" stop-color="#DD189B"/>
<stop offset="1" stop-color="#833AED"/>
</linearGradient>
<radialGradient id="paint1_radial_83_17" cx="0" cy="0" r="1" gradientUnits="userSpaceOnUse" gradientTransform="translate(290.675 188.29) scale(169.09 169.14)">
<stop stop-color="#833AED"/>
<stop offset="1" stop-color="#F54562"/>
</radialGradient>
<radialGradient id="paint2_radial_83_17" cx="0" cy="0" r="1" gradientUnits="userSpaceOnUse" gradientTransform="translate(290.675 188.29) scale(162.459 162.506)">
<stop stop-color="#FF2FBA"/>
<stop offset="1" stop-color="#F54562"/>
</radialGradient>
<radialGradient id="paint3_radial_83_17" cx="0" cy="0" r="1" gradientUnits="userSpaceOnUse" gradientTransform="translate(292.379 191.877) scale(120.537 120.572)">
<stop stop-color="#FF2FBA"/>
<stop offset="1" stop-color="#F54562"/>
</radialGradient>
<radialGradient id="paint4_radial_83_17" cx="0" cy="0" r="1" gradientUnits="userSpaceOnUse" gradientTransform="translate(292.252 270.921) scale(161.037 161.084)">
<stop stop-color="#FF2FBA"/>
<stop offset="1" stop-color="#F54562"/>
</radialGradient>
<linearGradient id="paint5_linear_83_17" x1="247" y1="304" x2="216.5" y2="131.5" gradientUnits="userSpaceOnUse">
<stop stop-color="#00B8FF"/>
<stop offset="1" stop-color="#00B8FF" stop-opacity="0"/>
</linearGradient>
<linearGradient id="paint6_linear_83_17" x1="411" y1="159.5" x2="216.5" y2="317.5" gradientUnits="userSpaceOnUse">
<stop stop-color="#BF24B8"/>
<stop offset="1" stop-color="#BF24B8" stop-opacity="0"/>
</linearGradient>
<linearGradient id="paint7_linear_83_17" x1="273.892" y1="78.2021" x2="274" y2="207.5" gradientUnits="userSpaceOnUse">
<stop stop-color="#D8A047"/>
<stop offset="1" stop-color="#D8A047" stop-opacity="0"/>
</linearGradient>
<linearGradient id="paint8_linear_83_17" x1="6.86148" y1="342.661" x2="420.652" y2="342.661" gradientUnits="userSpaceOnUse">
<stop stop-color="#7C37EB"/>
<stop offset="0.5329" stop-color="#DAE1FC" stop-opacity="0.128"/>
<stop offset="1" stop-color="#7C37EB" stop-opacity="0.73"/>
</linearGradient>
<linearGradient id="paint9_linear_83_17" x1="46.4873" y1="111.869" x2="251.351" y2="111.869" gradientUnits="userSpaceOnUse">
<stop stop-color="#7C37EB"/>
<stop offset="0.5329" stop-color="#DAE1FC" stop-opacity="0.128"/>
<stop offset="1" stop-color="#7C37EB" stop-opacity="0.73"/>
</linearGradient>
<linearGradient id="paint10_linear_83_17" x1="429.207" y1="290.282" x2="585.667" y2="290.282" gradientUnits="userSpaceOnUse">
<stop stop-color="#7C37EB"/>
<stop offset="0.5329" stop-color="#DAE1FC" stop-opacity="0.128"/>
<stop offset="1" stop-color="#7C37EB" stop-opacity="0.73"/>
</linearGradient>
<linearGradient id="paint11_linear_83_17" x1="142.29" y1="401.137" x2="33.6031" y2="398.047" gradientUnits="userSpaceOnUse">
<stop stop-color="#00B8FF"/>
<stop offset="1" stop-color="#00B8FF" stop-opacity="0"/>
</linearGradient>
<linearGradient id="paint12_linear_83_17" x1="606.372" y1="344.304" x2="509.953" y2="360.972" gradientUnits="userSpaceOnUse">
<stop stop-color="#FFC700"/>
<stop offset="1" stop-color="#FFC700" stop-opacity="0"/>
</linearGradient>
<linearGradient id="paint13_linear_83_17" x1="88.6805" y1="80.0426" x2="44.6592" y2="131.209" gradientUnits="userSpaceOnUse">
<stop stop-color="#FFC700"/>
<stop offset="1" stop-color="#FFC700" stop-opacity="0"/>
</linearGradient>
<linearGradient id="paint14_linear_83_17" x1="615.504" y1="54.2372" x2="524.309" y2="82.9329" gradientUnits="userSpaceOnUse">
<stop stop-color="#00B8FF"/>
<stop offset="1" stop-color="#00B8FF" stop-opacity="0"/>
</linearGradient>
</defs>
</svg>
