<svg width="143" height="132" viewBox="0 0 143 132" fill="none" xmlns="http://www.w3.org/2000/svg">
<path d="M122.979 36.161L123.541 107.314L55.5095 128.075L55.0036 56.7578L122.979 36.161Z" fill="#FF00AA"/>
<path d="M55.5095 128.075L10.8848 95.5371L10.3789 24.2199L55.0035 56.7581L55.5095 128.075Z" fill="#D51093"/>
<path d="M55.0036 56.758L10.379 24.2199L78.4108 3.45881L122.979 36.1612L55.0036 56.758Z" fill="#ED1BA7"/>
<path d="M122.979 36.1612L78.4108 3.4588L10.379 24.2199L10.8849 95.5371L55.5096 128.075L123.541 107.314L122.979 36.1612Z" fill="url(#paint0_linear_73_1087)"/>
<path fill-rule="evenodd" clip-rule="evenodd" d="M142.043 68.4071L118.766 97.88C116.968 100.164 114.052 98.6818 115.097 95.8876L122.24 76.6926H108.221C107.103 76.6926 106.277 75.9151 106.277 74.846C106.277 74.2385 106.52 73.704 106.957 73.1451L130.234 43.648C132.032 41.364 134.924 42.8462 133.903 45.6404L126.76 64.8597H140.779C141.897 64.8597 142.723 65.6372 142.723 66.7063C142.723 67.2894 142.48 67.824 142.043 68.4071ZM128.74 72.5135L122.252 86.4846L135.495 69.039H120.284L126.747 55.0436L113.53 72.5135H128.74Z" fill="white"/>
<defs>
<linearGradient id="paint0_linear_73_1087" x1="144.429" y1="42.4462" x2="27.1485" y2="77.8151" gradientUnits="userSpaceOnUse">
<stop stop-color="#FFC700"/>
<stop offset="1" stop-color="#FFC700" stop-opacity="0"/>
</linearGradient>
</defs>
</svg>
