<svg width="670" height="592" viewBox="0 0 670 592" fill="none" xmlns="http://www.w3.org/2000/svg">
<path d="M460.782 27L605.913 416.846L361.765 487.177L224.441 83.5249L460.782 27Z" fill="url(#paint0_linear_323_4345)"/>
<path d="M605.913 416.846L535.243 499.681L315.934 564.467L361.765 487.177L605.913 416.846Z" fill="url(#paint1_linear_323_4345)"/>
<path d="M361.762 487.177L315.931 564.467L194.847 199.573L224.439 83.5248L361.762 487.177Z" fill="url(#paint2_linear_323_4345)"/>
<path d="M1 448.023L83.2694 476.54L150.205 386.349L67.2003 362.019L1 448.023Z" fill="url(#paint3_linear_323_4345)"/>
<path d="M1 448.023L46.5481 514.393L127.12 544.324L83.2694 476.54L1 448.023Z" fill="url(#paint4_linear_323_4345)"/>
<path d="M83.2695 476.54L127.12 544.324L190.208 456.397L150.205 386.349L83.2695 476.54Z" fill="url(#paint5_linear_323_4345)"/>
<path d="M429.997 114.023L548.479 78.6026L636.01 312.001L513.172 350.363L429.997 114.023Z" fill="url(#paint6_linear_323_4345)"/>
<path d="M429.999 114.022L324.758 140.672L410.083 381.935L513.174 350.363L429.999 114.022Z" fill="url(#paint7_linear_323_4345)"/>
<path d="M429.998 114.022L425.472 128.903L503.441 353.532L513.173 350.363L429.998 114.022Z" fill="url(#paint8_linear_323_4345)"/>
<path d="M425.473 128.903L429.999 114.022L324.758 140.672L329.171 153.177L425.473 128.903Z" fill="url(#paint9_linear_323_4345)"/>
<path d="M668.469 484.031H666.031V486.469C666.031 487.32 665.351 488 664.5 488C663.649 488 662.969 487.32 662.969 486.469V484.031H660.531C659.68 484.031 659 483.351 659 482.5C659 481.649 659.68 480.969 660.531 480.969H662.969V478.531C662.969 477.68 663.649 477 664.5 477C665.351 477 666.031 477.68 666.031 478.531V480.969H668.469C669.32 480.969 670 481.649 670 482.5C670 483.351 669.32 484.031 668.469 484.031Z" fill="white"/>
<path d="M168.469 67.0309H166.031V69.4691C166.031 70.3196 165.351 71 164.5 71C163.649 71 162.969 70.3196 162.969 69.4691V67.0309H160.531C159.68 67.0309 159 66.3505 159 65.5C159 64.6495 159.68 63.9691 160.531 63.9691H162.969V61.5309C162.969 60.6804 163.649 60 164.5 60C165.351 60 166.031 60.6804 166.031 61.5309V63.9691H168.469C169.32 63.9691 170 64.6495 170 65.5C170 66.3505 169.32 67.0309 168.469 67.0309Z" fill="white"/>
<path d="M609.608 149.031H607.392V151.469C607.392 152.32 606.773 153 606 153C605.227 153 604.608 152.32 604.608 151.469V149.031H602.392C601.618 149.031 601 148.351 601 147.5C601 146.649 601.618 145.969 602.392 145.969H604.608V143.531C604.608 142.68 605.227 142 606 142C606.773 142 607.392 142.68 607.392 143.531V145.969H609.608C610.381 145.969 611 146.649 611 147.5C611 148.351 610.381 149.031 609.608 149.031Z" fill="white"/>
<path d="M74.4691 303.031H72.0309V305.469C72.0309 306.32 71.3505 307 70.5 307C69.6495 307 68.9691 306.32 68.9691 305.469V303.031H66.5309C65.6804 303.031 65 302.351 65 301.5C65 300.649 65.6804 299.969 66.5309 299.969H68.9691V297.531C68.9691 296.68 69.6495 296 70.5 296C71.3505 296 72.0309 296.68 72.0309 297.531V299.969H74.4691C75.3196 299.969 76 300.649 76 301.5C76 302.351 75.3196 303.031 74.4691 303.031Z" fill="white"/>
<path d="M630 364C630 362.937 629.344 362 628.5 362C627.703 362 627 362.875 627 364C627 365.063 627.656 366 628.5 366C629.344 366 630 365.063 630 364Z" fill="white"/>
<path d="M127 348C127 346.937 126.125 346 125 346C123.937 346 123 346.875 123 348C123 349.063 123.875 350 125 350C126.125 349.938 127 349.063 127 348Z" fill="white"/>
<path d="M631 113.5C631 112.703 630.344 112 629.5 112C628.703 112 628 112.656 628 113.5C628 114.297 628.656 115 629.5 115C630.344 115 631 114.344 631 113.5Z" fill="white"/>
<path d="M107 112C107 110.937 106.125 110 105 110C103.937 110 103 110.875 103 112C103 113.125 103.875 114 105 114C106.125 114 107 113.125 107 112Z" fill="white"/>
<path d="M513 47.5C513 46.7031 512.344 46 511.5 46C510.703 46 510 46.6562 510 47.5C510 48.3438 510.656 49 511.5 49C512.344 48.9531 513 48.2969 513 47.5Z" fill="white"/>
<path d="M3 514C3 512.938 2.34375 512 1.5 512C0.703124 512 0 512.875 0 514C0 515.063 0.656249 516 1.5 516C2.34375 516 3 515.125 3 514Z" fill="white"/>
<defs>
<linearGradient id="paint0_linear_323_4345" x1="381.817" y1="398.114" x2="459.198" y2="55.0052" gradientUnits="userSpaceOnUse">
<stop stop-color="#FF00AA"/>
<stop offset="0.0551" stop-color="#FF00AA"/>
<stop offset="1" stop-color="#00B8FF"/>
</linearGradient>
<linearGradient id="paint1_linear_323_4345" x1="476.829" y1="537.155" x2="450.927" y2="461.354" gradientUnits="userSpaceOnUse">
<stop stop-color="#FF00AA"/>
<stop offset="0.0551" stop-color="#FF00AA"/>
<stop offset="1" stop-color="#00B8FF"/>
</linearGradient>
<linearGradient id="paint2_linear_323_4345" x1="267.595" y1="582.137" x2="287.685" y2="135.256" gradientUnits="userSpaceOnUse">
<stop stop-color="#FF00AA"/>
<stop offset="0.0551" stop-color="#FF00AA"/>
<stop offset="1" stop-color="#00B8FF"/>
</linearGradient>
<linearGradient id="paint3_linear_323_4345" x1="78.1069" y1="331.49" x2="72.8319" y2="511.732" gradientUnits="userSpaceOnUse">
<stop stop-color="#FF00AA"/>
<stop offset="0.0551" stop-color="#FF00AA"/>
<stop offset="1" stop-color="#FFC700"/>
</linearGradient>
<linearGradient id="paint4_linear_323_4345" x1="41.9418" y1="585.263" x2="71.8354" y2="464.809" gradientUnits="userSpaceOnUse">
<stop stop-color="#FF00AA"/>
<stop offset="0.0551" stop-color="#FF00AA"/>
<stop offset="1" stop-color="#FFC700"/>
</linearGradient>
<linearGradient id="paint5_linear_323_4345" x1="135.872" y1="551.35" x2="137.63" y2="379.903" gradientUnits="userSpaceOnUse">
<stop stop-color="#FF00AA"/>
<stop offset="0.0551" stop-color="#FF00AA"/>
<stop offset="1" stop-color="#FFC700"/>
</linearGradient>
<linearGradient id="paint6_linear_323_4345" x1="611.211" y1="65.3942" x2="462.745" y2="345.675" gradientUnits="userSpaceOnUse">
<stop stop-color="#FF00AA"/>
<stop offset="0.0551" stop-color="#FF00AA"/>
<stop offset="1" stop-color="#00B8FF"/>
</linearGradient>
<linearGradient id="paint7_linear_323_4345" x1="648.099" y1="402.367" x2="301.305" y2="167.567" gradientUnits="userSpaceOnUse">
<stop stop-color="#17191B"/>
<stop offset="0.5123" stop-color="#17191B"/>
<stop offset="1" stop-color="#320A63"/>
</linearGradient>
<linearGradient id="paint8_linear_323_4345" x1="460.828" y1="236.062" x2="475.649" y2="230.706" gradientUnits="userSpaceOnUse">
<stop stop-color="#9700A1"/>
<stop offset="0.5123" stop-color="#610580"/>
<stop offset="1" stop-color="#320A63"/>
</linearGradient>
<linearGradient id="paint9_linear_323_4345" x1="432.815" y1="113.209" x2="325.067" y2="153.495" gradientUnits="userSpaceOnUse">
<stop stop-color="#9700A1"/>
<stop offset="0.5123" stop-color="#610580"/>
<stop offset="1" stop-color="#320A63"/>
</linearGradient>
</defs>
</svg>
