<svg width="135" height="132" viewBox="0 0 135 132" fill="none" xmlns="http://www.w3.org/2000/svg">
<path d="M122.979 36.161L123.541 107.314L55.5095 128.075L55.0035 56.7578L122.979 36.161Z" fill="#FF00AA"/>
<path d="M55.5094 128.075L10.8848 95.5371L10.3788 24.2199L55.0035 56.7581L55.5094 128.075Z" fill="#D51093"/>
<path d="M55.0036 56.758L10.379 24.2199L78.4108 3.45881L122.979 36.1612L55.0036 56.758Z" fill="#ED1BA7"/>
<path d="M122.979 36.1612L78.4108 3.4588L10.379 24.2199L10.8849 95.5371L55.5095 128.075L123.541 107.314L122.979 36.1612Z" fill="url(#paint0_linear_73_545)"/>
<path fill-rule="evenodd" clip-rule="evenodd" d="M111.534 69.5185C111.534 71.2217 110.34 72.394 108.637 72.394C107.907 72.394 107.199 72.1286 106.69 71.5977L100.718 65.5813L96.1613 60.7814L96.6479 66.9748V68.3462C96.6479 69.9388 95.4756 71.0669 93.883 71.0669C92.3125 71.0669 91.118 69.9167 91.118 68.3462V56.3796C91.118 53.5926 92.7328 52 95.4977 52H107.774C109.344 52 110.495 53.1723 110.495 54.7649C110.495 56.3575 109.344 57.5077 107.774 57.5077H106.159L99.8773 57.0432L104.699 61.5777L110.694 67.572C111.225 68.1029 111.534 68.7665 111.534 69.5185ZM134.096 90.6204C134.096 93.4074 132.481 95 129.716 95H117.44C115.87 95 114.719 93.8277 114.719 92.2351C114.719 90.6425 115.87 89.4923 117.44 89.4923H119.055L125.315 89.9568L120.515 85.4223L114.52 79.428C113.989 78.8971 113.68 78.2335 113.68 77.4815C113.68 75.7783 114.874 74.606 116.577 74.606C117.307 74.606 117.993 74.8714 118.524 75.4023L124.496 81.4187L129.053 86.2186L128.566 80.0252V78.6538C128.566 77.0612 129.738 75.9331 131.331 75.9331C132.901 75.9331 134.096 77.0833 134.096 78.6538V90.6204Z" fill="white"/>
<defs>
<linearGradient id="paint0_linear_73_545" x1="144.429" y1="42.4462" x2="27.1485" y2="77.8151" gradientUnits="userSpaceOnUse">
<stop stop-color="#7F3FFE"/>
<stop offset="1" stop-color="#7F3FFE" stop-opacity="0"/>
</linearGradient>
</defs>
</svg>
