<svg width="722" height="644" viewBox="0 0 722 644" fill="none" xmlns="http://www.w3.org/2000/svg">
<path d="M500.083 490.602L533.39 584.687L452.919 643.034L419.613 549.192L500.083 490.602Z" fill="#FF00AA"/>
<path d="M452.919 643.034L379.013 620.424L345.707 526.34L419.613 549.192L452.919 643.034Z" fill="#D51093"/>
<path d="M419.613 549.192L345.707 526.34L426.177 467.992L500.083 490.602L419.613 549.192Z" fill="#ED1BA7"/>
<path d="M500.083 490.602L426.177 467.992L345.707 526.34L379.013 620.424L452.919 643.034L533.39 584.687L500.083 490.602Z" fill="url(#paint0_linear_49_314)"/>
<path d="M154.377 248.948L187.683 342.789L107.213 401.379L73.9063 307.295L154.377 248.948Z" fill="#FF00AA"/>
<path d="M107.213 401.38L33.3065 378.77L0 284.685L73.9063 307.295L107.213 401.38Z" fill="#D51093"/>
<path d="M73.9063 307.295L0 284.685L80.4704 226.095L154.377 248.948L73.9063 307.295Z" fill="#ED1BA7"/>
<path d="M154.377 248.948L80.4704 226.095L0 284.685L33.3065 378.77L107.213 401.379L187.683 342.789L154.377 248.948Z" fill="url(#paint1_linear_49_314)"/>
<path d="M538.981 210.536L572.288 304.621L491.817 363.211L458.511 269.126L538.981 210.536Z" fill="#FF2FBA"/>
<path d="M491.817 363.211L417.668 340.358L384.605 246.517L458.511 269.126L491.817 363.211Z" fill="#C21288"/>
<path d="M458.511 269.126L384.605 246.517L465.075 187.926L538.981 210.536L458.511 269.126Z" fill="#DD189B"/>
<path d="M458.754 268.64L492.061 362.725L411.59 421.315L378.284 327.23L458.754 268.64Z" fill="#FF2FBA"/>
<path d="M411.59 421.315L337.684 398.462L304.377 304.621L378.284 327.23L411.59 421.315Z" fill="#C21288"/>
<path d="M378.284 327.23L304.377 304.621L384.848 246.03L458.754 268.64L378.284 327.23Z" fill="#DD189B"/>
<path d="M378.284 327.23L411.59 421.315L331.12 479.905L297.813 385.82L378.284 327.23Z" fill="#FF2FBA"/>
<path d="M331.12 479.905L257.213 457.052L223.907 363.211L297.813 385.82L331.12 479.905Z" fill="#C21288"/>
<path d="M297.813 385.82L223.907 363.211L304.377 304.621L378.284 327.23L297.813 385.82Z" fill="#DD189B"/>
<path d="M506.161 115.479L539.468 209.563L458.997 268.154L425.691 174.069L506.161 115.479Z" fill="#FF2FBA"/>
<path d="M458.997 268.154L385.091 245.544L351.784 151.459L425.691 174.069L458.997 268.154Z" fill="#C21288"/>
<path d="M425.691 174.069L351.784 151.459L432.255 92.8692L506.161 115.479L425.691 174.069Z" fill="#DD189B"/>
<path d="M426.177 173.583L459.484 267.667L379.013 326.258L345.707 232.173L426.177 173.583Z" fill="#FF2FBA"/>
<path d="M379.013 326.258L304.864 303.648L271.8 209.563L345.707 232.173L379.013 326.258Z" fill="#C21288"/>
<path d="M345.707 232.173L271.8 209.563L352.271 150.973L426.177 173.583L345.707 232.173Z" fill="#DD189B"/>
<path d="M345.707 232.173L379.013 326.258L298.543 384.848L265.236 290.763L345.707 232.173Z" fill="#FF2FBA"/>
<path d="M298.543 384.848L224.393 362.238L191.33 268.154L265.236 290.763L298.543 384.848Z" fill="#C21288"/>
<path d="M265.236 290.763L191.33 268.154L271.8 209.563L345.707 232.173L265.236 290.763Z" fill="#DD189B"/>
<path d="M474.07 22.6096L507.377 116.694L426.906 175.041L393.6 81.1998L474.07 22.6096Z" fill="#FF2FBA"/>
<path d="M426.906 175.041L353 152.432L319.694 58.3471L393.6 81.1998L426.906 175.041Z" fill="#C21288"/>
<path d="M393.6 81.1998L319.694 58.3471L400.164 0L474.07 22.6095L393.6 81.1998Z" fill="#DD189B"/>
<path d="M393.843 80.7135L427.15 174.555L346.679 233.145L313.373 139.061L393.843 80.7135Z" fill="#FF2FBA"/>
<path d="M346.679 233.145L272.773 210.536L239.466 116.451L313.373 139.061L346.679 233.145Z" fill="#C21288"/>
<path d="M313.373 139.061L239.466 116.451L319.937 58.104L393.843 80.7135L313.373 139.061Z" fill="#DD189B"/>
<path d="M613.617 233.632L646.924 327.716L566.453 386.063L533.147 292.222L613.617 233.632Z" fill="#FF2FBA"/>
<path d="M566.453 386.063L492.547 363.454L459.24 269.612L533.147 292.222L566.453 386.063Z" fill="#C21288"/>
<path d="M533.147 292.222L459.24 269.612L539.711 211.022L613.617 233.632L533.147 292.222Z" fill="#DD189B"/>
<path d="M533.633 291.736L566.939 385.82L486.469 444.167L453.163 350.326L533.633 291.736Z" fill="#FF2FBA"/>
<path d="M486.469 444.167L412.32 421.558L379.013 327.473L453.163 350.326L486.469 444.167Z" fill="#C21288"/>
<path d="M453.163 350.326L379.013 327.473L459.727 269.126L533.633 291.736L453.163 350.326Z" fill="#DD189B"/>
<path d="M581.04 138.574L614.346 232.659L533.876 291.249L500.57 197.165L581.04 138.574Z" fill="#FF2FBA"/>
<path d="M533.876 291.249L459.97 268.397L426.663 174.555L500.57 197.165L533.876 291.249Z" fill="#C21288"/>
<path d="M500.57 197.165L426.663 174.555L507.134 115.965L581.04 138.574L500.57 197.165Z" fill="#DD189B"/>
<path d="M500.813 196.678L534.119 290.763L453.649 349.353L420.342 255.269L500.813 196.678Z" fill="#FF2FBA"/>
<path d="M453.649 349.353L379.742 326.501L346.436 232.659L420.342 255.269L453.649 349.353Z" fill="#C21288"/>
<path d="M420.342 255.269L346.436 232.659L426.906 174.069L500.813 196.678L420.342 255.269Z" fill="#DD189B"/>
<path d="M420.342 255.269L453.649 349.353L373.178 407.944L339.872 313.859L420.342 255.269Z" fill="#FF2FBA"/>
<path d="M373.178 407.944L299.272 385.091L265.966 291.249L339.872 313.859L373.178 407.944Z" fill="#C21288"/>
<path d="M339.872 313.859L265.966 291.249L346.436 232.659L420.342 255.269L339.872 313.859Z" fill="#DD189B"/>
<path d="M548.706 45.7052L582.012 139.547L501.542 198.137L467.992 104.052L548.706 45.7052Z" fill="#FF2FBA"/>
<path d="M501.542 198.137L427.393 175.528L393.843 81.4428L467.993 104.052L501.542 198.137Z" fill="#C21288"/>
<path d="M467.992 104.052L393.843 81.4428L474.557 22.8526L548.706 45.7052L467.992 104.052Z" fill="#DD189B"/>
<path d="M387.765 162.156L421.072 256.241L340.358 314.831L307.052 220.747L387.765 162.156Z" fill="#FF2FBA"/>
<path d="M340.358 314.831L266.209 292.222L232.902 198.137L307.052 220.747L340.358 314.831Z" fill="#C21288"/>
<path d="M307.052 220.747L232.902 198.137L313.616 139.547L387.765 162.156L307.052 220.747Z" fill="#DD189B"/>
<path d="M688.496 257.7L721.802 351.784L641.332 410.132L608.025 316.29L688.496 257.7Z" fill="#FF2FBA"/>
<path d="M641.332 410.132L567.183 387.522L534.119 293.68L608.025 316.29L641.332 410.132Z" fill="#C21288"/>
<path d="M608.025 316.29L534.119 293.68L614.59 235.09L688.496 257.7L608.025 316.29Z" fill="#DD189B"/>
<path d="M608.269 315.804L641.575 409.888L561.105 468.236L527.798 374.394L608.269 315.804Z" fill="#FF2FBA"/>
<path d="M561.105 468.236L487.198 445.626L453.892 351.541L527.798 374.394L561.105 468.236Z" fill="#C21288"/>
<path d="M527.798 374.394L453.892 351.541L534.362 293.194L608.269 315.804L527.798 374.394Z" fill="#DD189B"/>
<path d="M528.771 373.908L561.834 467.992L481.364 526.583L448.057 432.498L528.771 373.908Z" fill="#FF2FBA"/>
<path d="M481.364 526.583L407.457 503.973L374.151 409.888L448.057 432.498L481.364 526.583Z" fill="#C21288"/>
<path d="M448.057 432.498L374.151 409.888L454.621 351.298L528.771 373.908L448.057 432.498Z" fill="#DD189B"/>
<path d="M655.676 162.643L688.982 256.727L608.512 315.317L575.205 221.233L655.676 162.643Z" fill="#FF2FBA"/>
<path d="M608.512 315.318L534.605 292.465L501.299 198.623L575.205 221.233L608.512 315.318Z" fill="#C21288"/>
<path d="M575.205 221.233L501.299 198.623L581.769 140.033L655.676 162.643L575.205 221.233Z" fill="#DD189B"/>
<path d="M495.221 279.337L528.528 373.422L448.057 432.012L414.751 337.927L495.221 279.337Z" fill="#FF2FBA"/>
<path d="M448.057 432.012L373.908 409.159L340.844 315.318L414.751 337.927L448.057 432.012Z" fill="#C21288"/>
<path d="M414.751 337.927L340.844 315.318L421.315 256.727L495.221 279.337L414.751 337.927Z" fill="#DD189B"/>
<path d="M623.585 69.7735L656.891 163.615L576.421 222.205L543.114 128.121L623.585 69.7735Z" fill="#FF2FBA"/>
<path d="M576.421 222.205L502.515 199.596L469.208 105.511L543.114 128.121L576.421 222.205Z" fill="#C21288"/>
<path d="M543.114 128.121L469.208 105.511L549.678 46.9208L623.585 69.7735L543.114 128.121Z" fill="#DD189B"/>
<path d="M543.358 127.877L576.664 221.719L496.194 280.309L462.887 186.225L543.358 127.877Z" fill="#FF2FBA"/>
<path d="M496.194 280.309L422.287 257.7L388.981 163.615L462.887 186.225L496.194 280.309Z" fill="#C21288"/>
<path d="M462.887 186.225L388.981 163.615L469.451 105.025L543.357 127.877L462.887 186.225Z" fill="#DD189B"/>
<path d="M462.887 186.225L496.194 280.309L415.723 338.899L382.417 244.815L462.887 186.225Z" fill="#FF2FBA"/>
<path d="M415.723 338.899L341.817 316.29L308.51 222.205L382.417 244.815L415.723 338.899Z" fill="#C21288"/>
<path d="M382.417 244.815L308.51 222.205L388.981 163.615L462.887 186.225L382.417 244.815Z" fill="#DD189B"/>
<path d="M257.213 457.052L331.12 479.905L299.272 385.091L373.908 409.159L406.728 504.216L480.634 526.826L382.417 244.815L232.902 198.137L266.209 292.222L191.33 268.154L257.213 457.052Z" fill="#D51093"/>
<path d="M400.164 0L239.466 116.451L313.616 139.547L393.843 81.4428L469.451 105.025L388.981 163.615L313.616 139.547L232.902 198.137L382.417 244.815L623.585 69.7734L400.164 0Z" fill="#ED1BA7"/>
<path d="M393.843 81.4428L313.616 139.547L388.981 163.615L469.451 105.025L393.843 81.4428Z" fill="url(#paint2_linear_49_314)"/>
<path d="M623.585 69.7735L382.417 245.058L480.634 527.069L721.802 351.785L623.585 69.7735ZM528.528 373.422L496.437 280.309L576.907 221.719L608.755 315.074L528.528 373.422Z" fill="#FF00AA"/>
<path d="M299.272 385.091L331.12 479.905L384.605 440.278L373.908 409.159L299.272 385.091Z" fill="url(#paint3_linear_49_314)"/>
<path d="M496.194 280.309L528.528 373.421L608.512 315.317L576.421 222.205L496.194 280.309Z" fill="url(#paint4_linear_49_314)"/>
<path d="M138.818 25.527L155.349 72.4478L115.236 101.864L98.7039 54.7005L138.818 25.527Z" fill="#FF00AA"/>
<path d="M115.236 101.864L78.2824 90.4381L61.5076 43.5173L98.7039 54.7005L115.236 101.864Z" fill="#D51093"/>
<path d="M98.7039 54.7005L61.5076 43.5173L101.864 14.1006L138.818 25.5269L98.7039 54.7005Z" fill="#ED1BA7"/>
<path d="M138.818 25.5269L101.864 14.1006L61.5076 43.5173L78.2824 90.4381L115.236 101.864L155.349 72.4477L138.818 25.5269Z" fill="url(#paint5_linear_49_314)"/>
<defs>
<linearGradient id="paint0_linear_49_314" x1="419.397" y1="485.197" x2="454.725" y2="608.847" gradientUnits="userSpaceOnUse">
<stop stop-color="#7F3FFE"/>
<stop offset="1" stop-color="#7F3FFE" stop-opacity="0"/>
</linearGradient>
<linearGradient id="paint1_linear_49_314" x1="185.62" y1="247.443" x2="46.7047" y2="347.89" gradientUnits="userSpaceOnUse">
<stop stop-color="#7F3FFE"/>
<stop offset="1" stop-color="#7F3FFE" stop-opacity="0"/>
</linearGradient>
<linearGradient id="paint2_linear_49_314" x1="416.542" y1="194.162" x2="373.611" y2="70.734" gradientUnits="userSpaceOnUse">
<stop stop-color="#7F3FFE"/>
<stop offset="1" stop-color="#7F3FFE" stop-opacity="0"/>
</linearGradient>
<linearGradient id="paint3_linear_49_314" x1="346.42" y1="385.668" x2="328.756" y2="493.418" gradientUnits="userSpaceOnUse">
<stop stop-color="#7F3FFE"/>
<stop offset="1" stop-color="#7F3FFE" stop-opacity="0"/>
</linearGradient>
<linearGradient id="paint4_linear_49_314" x1="496.634" y1="276.234" x2="593.351" y2="313.638" gradientUnits="userSpaceOnUse">
<stop stop-color="#7F3FFE"/>
<stop offset="1" stop-color="#7F3FFE" stop-opacity="0"/>
</linearGradient>
<linearGradient id="paint5_linear_49_314" x1="134.527" y1="118.436" x2="98.5419" y2="34.7321" gradientUnits="userSpaceOnUse">
<stop stop-color="#7F3FFE"/>
<stop offset="1" stop-color="#7F3FFE" stop-opacity="0"/>
</linearGradient>
</defs>
</svg>
