<svg width="632" height="360" viewBox="0 0 632 360" fill="none" xmlns="http://www.w3.org/2000/svg">
<mask id="mask0_406_10630" style="mask-type:alpha" maskUnits="userSpaceOnUse" x="0" y="0" width="632" height="360">
<rect width="632" height="360" rx="16" fill="#D9D9D9"/>
</mask>
<g mask="url(#mask0_406_10630)">
<path d="M243.01 345.068C243.026 345.714 242.51 346.296 241.829 346.314C241.184 346.33 240.603 345.813 240.585 345.13C240.569 344.485 241.085 343.902 241.767 343.885C242.449 343.868 242.994 344.423 243.01 345.068Z" fill="white"/>
<path d="M170.609 97.2142C170.625 97.8593 170.242 98.4386 169.731 98.4516C169.219 98.4646 168.808 97.9435 168.791 97.2605C168.773 96.5775 169.158 96.0361 169.669 96.0231C170.18 96.01 170.593 96.5691 170.609 97.2142Z" fill="white"/>
<path d="M52.57 202.283C52.5863 202.928 52.203 203.508 51.6915 203.521C51.2084 203.533 50.7688 203.013 50.7515 202.33C50.7351 201.684 51.1184 201.105 51.6299 201.092C52.1139 201.118 52.5536 201.638 52.57 202.283Z" fill="white"/>
<path d="M204.901 205.698C204.917 206.343 204.401 206.926 203.719 206.943C203.075 206.959 202.493 206.442 202.476 205.759C202.46 205.114 202.976 204.532 203.658 204.514C204.34 204.497 204.883 205.015 204.901 205.698Z" fill="white"/>
<path d="M77.9535 126.911C77.9698 127.556 77.454 128.139 76.772 128.156C76.128 128.172 75.5462 127.656 75.5288 126.973C75.5125 126.327 76.0285 125.745 76.7104 125.727C77.3933 125.748 77.9371 126.266 77.9535 126.911Z" fill="white"/>
<path d="M354.216 54.8694L482.994 159.192L188.779 554.646L60.0003 450.324L354.216 54.8694Z" fill="url(#paint0_linear_406_10630)"/>
<path d="M188.723 554.72L201.8 614.423L479.469 241.209L482.993 159.192L188.723 554.72Z" fill="url(#paint1_linear_406_10630)"/>
<path opacity="0.24" d="M246.048 167.149C220.046 202.098 216.2 244.317 237.481 261.557C258.761 278.796 297.034 264.404 323.008 229.493C348.981 194.582 352.855 152.324 331.575 135.085C310.294 117.846 272.05 132.2 246.048 167.149Z" fill="black"/>
<path d="M172.782 212.156C134.244 180.936 127.256 123.027 157.175 82.8125C187.095 42.5981 242.591 35.3069 281.13 66.5269C319.668 97.747 326.656 155.656 296.737 195.87C266.817 236.085 211.321 243.376 172.782 212.156Z" fill="url(#paint2_radial_406_10630)"/>
<path d="M464.233 274.305L504.373 391.662L407.994 465.157L367.854 347.496L464.233 274.305Z" fill="#FF00AA"/>
<path d="M407.995 465.157L319.316 437.027L279.176 319.365L367.854 347.496L407.995 465.157Z" fill="#D51093"/>
<path d="M367.853 347.496L279.174 319.366L375.553 245.871L464.232 274.305L367.853 347.496Z" fill="#ED1BA7"/>
<path d="M464.234 274.305L375.555 245.871L279.176 319.366L319.317 437.028L407.996 465.158L504.374 391.662L464.234 274.305Z" fill="url(#paint3_linear_406_10630)"/>
</g>
<defs>
<linearGradient id="paint0_linear_406_10630" x1="256.331" y1="461.362" x2="295.437" y2="79.2646" gradientUnits="userSpaceOnUse">
<stop stop-color="#FF00AA"/>
<stop offset="0.0551" stop-color="#FF00AA"/>
<stop offset="0.7107" stop-color="#7E0CB6"/>
<stop offset="1" stop-color="#4F109B"/>
</linearGradient>
<linearGradient id="paint1_linear_406_10630" x1="265.844" y1="656.403" x2="407.051" y2="191.549" gradientUnits="userSpaceOnUse">
<stop stop-color="#FF00AA"/>
<stop offset="0.0551" stop-color="#FF00AA"/>
<stop offset="0.7107" stop-color="#7E0CB6"/>
<stop offset="1" stop-color="#4F109B"/>
</linearGradient>
<radialGradient id="paint2_radial_406_10630" cx="0" cy="0" r="1" gradientUnits="userSpaceOnUse" gradientTransform="translate(252.05 227.246) rotate(-140.989) scale(179.758 181.509)">
<stop stop-color="#FFC700"/>
<stop offset="0.1223" stop-color="#FFC700"/>
<stop offset="0.5699" stop-color="#FF8D33"/>
<stop offset="0.9304" stop-color="#FFC700"/>
<stop offset="1" stop-color="#FFC700"/>
</radialGradient>
<linearGradient id="paint3_linear_406_10630" x1="501.7" y1="272.354" x2="330.5" y2="391.426" gradientUnits="userSpaceOnUse">
<stop stop-color="#FFC700"/>
<stop offset="1" stop-color="#FFC700" stop-opacity="0"/>
</linearGradient>
</defs>
</svg>
