<svg width="632" height="352" viewBox="0 0 632 352" fill="none" xmlns="http://www.w3.org/2000/svg">
<mask id="mask0_406_10764" style="mask-type:alpha" maskUnits="userSpaceOnUse" x="0" y="0" width="632" height="352">
<rect width="632" height="352" fill="#D9D9D9"/>
</mask>
<g mask="url(#mask0_406_10764)">
<path d="M182.784 194.586C182.873 195.263 182.515 195.917 181.954 195.989C181.394 196.061 180.885 195.559 180.792 194.842C180.698 194.125 181.061 193.511 181.621 193.439C182.182 193.367 182.696 193.909 182.784 194.586Z" fill="white"/>
<path d="M64.585 318.663C64.6735 319.34 64.3156 319.994 63.7551 320.066C63.2258 320.134 62.6859 319.636 62.5923 318.919C62.5038 318.242 62.8616 317.588 63.4221 317.516C63.9566 317.488 64.4966 317.986 64.585 318.663Z" fill="white"/>
<path d="M232.31 304.891C232.398 305.568 231.895 306.24 231.148 306.336C230.442 306.427 229.746 305.949 229.653 305.232C229.564 304.555 230.068 303.882 230.815 303.786C231.562 303.69 232.216 304.173 232.31 304.891Z" fill="white"/>
<path d="M84.2375 236.415C84.326 237.092 83.8229 237.764 83.0756 237.86C82.3698 237.951 81.6742 237.473 81.5806 236.756C81.4921 236.079 81.9953 235.407 82.7426 235.311C83.4951 235.254 84.1491 235.737 84.2375 236.415Z" fill="white"/>
<path d="M414.494 122.463C419.35 169.252 386.744 210.716 341.395 215.422C296.046 220.128 255.621 186.243 250.765 139.454C245.91 92.6654 278.515 51.2018 323.865 46.4956C369.214 41.7894 409.638 75.6742 414.494 122.463Z" fill="url(#paint0_radial_406_10764)"/>
<path d="M156.496 250.089L197.443 304.667L146.189 376.205L108.192 320.082L156.496 250.089Z" fill="url(#paint1_linear_406_10764)"/>
<path d="M156.545 250.075L216.918 268.182L258.49 321.08L197.46 304.604L156.545 250.075Z" fill="url(#paint2_linear_406_10764)"/>
<path d="M197.433 304.483L258.45 320.948L207.976 389.013L146.218 375.937L197.433 304.483Z" fill="url(#paint3_linear_406_10764)"/>
<path d="M502.885 176.026L571.305 314.373L458.16 419.263L389.696 280.542L502.885 176.026Z" fill="#FF00AA"/>
<path d="M458.163 419.263L340.277 397.976L271.812 259.255L389.699 280.542L458.163 419.263Z" fill="#D51093"/>
<path d="M389.697 280.543L271.811 259.255L384.955 154.365L502.886 176.027L389.697 280.543Z" fill="#ED1BA7"/>
<path d="M502.884 176.027L384.953 154.365L271.809 259.255L340.273 397.976L458.159 419.264L571.303 314.374L502.884 176.027Z" fill="url(#paint4_linear_406_10764)"/>
</g>
<defs>
<radialGradient id="paint0_radial_406_10764" cx="0" cy="0" r="1" gradientUnits="userSpaceOnUse" gradientTransform="translate(271.464 186.742) rotate(-5.92476) scale(164.744 169.974)">
<stop stop-color="#01B9FF"/>
<stop offset="0.1223" stop-color="#01B7FF"/>
<stop offset="0.5699" stop-color="#014EB1"/>
<stop offset="0.9304" stop-color="#01B4FC"/>
<stop offset="1" stop-color="#01B2FB"/>
</radialGradient>
<linearGradient id="paint1_linear_406_10764" x1="120.89" y1="296.639" x2="183.049" y2="330.309" gradientUnits="userSpaceOnUse">
<stop stop-color="white"/>
<stop offset="1" stop-color="#C5C6D1"/>
</linearGradient>
<linearGradient id="paint2_linear_406_10764" x1="219.58" y1="258.545" x2="196.636" y2="309.947" gradientUnits="userSpaceOnUse">
<stop stop-color="white"/>
<stop offset="1" stop-color="#9FA1B5"/>
</linearGradient>
<linearGradient id="paint3_linear_406_10764" x1="198.498" y1="395.224" x2="207.173" y2="289.175" gradientUnits="userSpaceOnUse">
<stop stop-color="white"/>
<stop offset="1" stop-color="#C5C6D1"/>
</linearGradient>
<linearGradient id="paint4_linear_406_10764" x1="550.697" y1="168" x2="355.249" y2="347.998" gradientUnits="userSpaceOnUse">
<stop stop-color="#7F3FFE"/>
<stop offset="1" stop-color="#7F3FFE" stop-opacity="0"/>
</linearGradient>
</defs>
</svg>
